# xmcd
#
# Track frame offsets: 
#        150
#        14327
#        27046
#        40917
#        54193
#        68002
#        82742
#        98989
#        114176
#        125975
#        140441
#        153327
#        164003
#        177598
#        190732
#        203199
#        214544
#        226978
#        240131
#        254152
#        269748
#        281383
#        294239
#        309977
#
# Disc length: 4452 seconds
#
# Revision: 0
# Processed by: cddbd v1.5.2PL0 Copyright (c) Steve Scherf et al.
# Submitted via: ExactAudioCopy v0.99pb3
#
DISCID=4c116218
DTITLE=Tommy Dorsey - I'm Getting Sentimental Over You - Classic Jazz 
DTITLE=Archive
DYEAR=1900
DGENRE=Jazz
TTITLE0=It's Right Here For You
TTITLE1=Tiger Rag
TTITLE2=Daddy, Change Your Mind
TTITLE3=You Can't Cheat A Cheater
TTITLE4=Three Moods
TTITLE5=Weary Blues
TTITLE6=I'm Getting Sentimental Over You
TTITLE7=The Music Goes 'Round And Around
TTITLE8=I'm Shooting High
TTITLE9=Rhythm Saved The World
TTITLE10=Royal Garden Blues
TTITLE11=Ja-Da
TTITLE12=That's A Plenty
TTITLE13=After You've Gone
TTITLE14=Sleep
TTITLE15=Maple Leaf Rag
TTITLE16=Keepin' Out Of Mischief Now
TTITLE17=Melody In F
TTITLE18=Song Of India
TTITLE19=Liebestraum
TTITLE20=Mendelson's Spring Song
TTITLE21=Blue Danube
TTITLE22=Dark Eyes
TTITLE23=Stop, Look And Listen
EXTD=
EXTT0=
EXTT1=
EXTT2=
EXTT3=
EXTT4=
EXTT5=
EXTT6=
EXTT7=
EXTT8=
EXTT9=
EXTT10=
EXTT11=
EXTT12=
EXTT13=
EXTT14=
EXTT15=
EXTT16=
EXTT17=
EXTT18=
EXTT19=
EXTT20=
EXTT21=
EXTT22=
EXTT23=
PLAYORDER=
